<svg xmlns="http://www.w3.org/2000/svg" xmlns:xlink="http://www.w3.org/1999/xlink" viewBox="0 0 207.58 207.58"><defs><linearGradient id="a" x1="6.53" y1="40.63" x2="198.48" y2="165.28" gradientUnits="userSpaceOnUse"><stop offset="0" stop-color="#333797"/><stop offset="0.14" stop-color="#333b98"/><stop offset="0.28" stop-color="#33489c"/><stop offset="0.42" stop-color="#335ca2"/><stop offset="0.57" stop-color="#3379ab"/><stop offset="0.71" stop-color="#339fb6"/><stop offset="0.86" stop-color="#33ccc3"/><stop offset="1" stop-color="#33ffd2"/></linearGradient></defs><title>favicon_1</title><rect width="207.58" height="207.58" rx="48.22" style="fill:url(#a)"/><path d="M155.79,168.53c22.07,0,30.73,5.71,33.65,11.87a13.32,13.32,0,0,1-.2,10,.69.69,0,0,1-1.16,0c-1-1.43-3.1-4.89-9.72-5.74-31.84-4.08-54-2.59-54-2.59-51.64,2.6-86.85,2.5-99.82-15,0,0-25.07-28.93,17.3-91.92,27.22-40.22,54.82-51.3,70.37-41,0,0,25.54,14.33,14,74.26a2.15,2.15,0,0,0,4,1.37c5.22-10.67,9.88-20.24,13.86-28.64,10.11-23.19,19.44-45.56,10.69-46.79-.39,0-.58-.61-.39-1,2.53-3.49,5.45-2.88,5.45-2.88,9.33,1.44,8.94,14,6,27.29A148.37,148.37,0,0,1,156,86.24c-8,18.26-17.3,37.55-25.27,56.43-2.33,6-2.14,9-1.94,10.46a1.29,1.29,0,0,1-1.17,1.23,21.2,21.2,0,0,1-8.36-.82,2.62,2.62,0,0,1-1.17-.41c-15-5.54-3.69-30.78-.39-68.12,3.5-39.4-8-46-8-46-3.49-2.67-21.77-8.62-58.5,47-36.75,55.82-20.42,75.72-20.42,75.72C42.87,177.75,80,174.68,80,174.68c12.44-.62,28.77-1.85,41.8-3.49C138.06,169.37,153.24,168.53,155.79,168.53Z" style="fill:#fff"/></svg>