<svg xmlns="http://www.w3.org/2000/svg" viewBox="0 0 377.92 134.44"><title>Vitaello</title><path d="M148.35,41c3.69.36,7.27-1,7.88-3.17.79-2.12-1.79-4.06-5.48-4.41-3.7-.18-7.29,1.23-7.89,3.17C142.08,38.69,144.65,40.63,148.35,41Z" style="fill:#3c97b4"/><path d="M191.15,114.59c-28.05-.36-58.85,2.12-97.14,6.53-11.88,1.41-26.75,2.47-38.06,3,0,0-33.81,2.65-44.24-11.12,0,0-14.2-17.12,20.94-65.13C67.78,0,84.19,5.16,87.28,7.45c0,0,10.2,5.65,5.77,39.54-4.19,32.12-15.23,53.83-1.82,58.59a2.44,2.44,0,0,0,1,.36,20.17,20.17,0,0,0,7.56.7,1.19,1.19,0,0,0,1.1-1.06c-.13-1.23-.21-3.88,2.1-9,7.84-16.24,16.92-32.83,24.74-48.53a127.35,127.35,0,0,0,9.91-24.54C140.77,12,141.52,1.27,133.09,0c0,0-2.63-.53-5,2.47-.19.35,0,.88.32.88,7.9,1.06-1.28,20.3-11.2,40.24-5.88,10.95-13.25,24.18-21.77,39.54,21.66-65.13-5.68-80-5.68-80-13.79-8.82-39.21.71-65.21,35.3C-16,92.7,5.89,117.59,5.89,117.59,22,139.3,81.15,129.94,166.15,127.3c27.38-.71,38.83,0,45.82,1.94,5.77,1.59,7.8,3.7,8.64,4.94a.67.67,0,0,0,1.06,0,11,11,0,0,0,.5-8.65C219.72,120.23,211.09,114.76,191.15,114.59Z" style="fill:#343797"/><path d="M366.25,43.1c-9.47-.65-16.42,2.56-22.57,18.86-4,10.79-4.57,16.32-7.37,21-10.39,20.91-14.24,18.88-14.24,18.88-3.64-1.94-2.12-14.3,1.14-25.95,3.28-12.35,9.74-29.47,16-49.95,1.8-5.65,0-9.72-5.08-10.59-5.34-.92-8.29,4.59-9.35,9.36-5.27,23.12-11.38,40.42-13.18,50.65q-.74,3.63-1.22,6.91c-10.65,21.63-14.58,19.57-14.58,19.57-3.64-1.94-2.12-14.3,1.14-25.95,3.28-12.35,9.74-29.47,16-49.95,1.8-5.65,0-9.74-5.08-10.59s-8.29,4.59-9.35,9.36c-5.27,23.12-11.38,40.42-13.17,50.65-.35,1.68-.64,3.29-.9,4.86-1.19,2.63-2.44,5-3.42,7,0,0-8.39,16.77-21.38,14.65-9.64-1.59-4.5-21.36-3.26-26.3,13.6-4.94,19.61-19.42,19.61-19.42,6.34-13.94-2.82-14.47-2.82-14.47C254.6,41,244.17,70.11,242.92,75.23a41.61,41.61,0,0,0-1.48,6.5c-10.86,22.25-14.86,20.15-14.86,20.15-5-3.53.69-23.48,5.65-38.13,1.17-3.17.23-6.17-2.36-7.76a1.28,1.28,0,0,0-.7-.36c4.73-13.23-7.42-13.94-7.42-13.94-19.38-1.06-33.37,33.54-33.37,33.54-.94,2.52-1.66,4.82-2.23,6.94-10.69,21.78-14.64,19.71-14.64,19.71-3.64-1.94-2.12-14.3,1.14-25.95,2.87-10.94,8.4-26.65,14.61-46.77,8.13-.35,15.37-.35,17.46.53a.55.55,0,0,0,.72-.35c.23-1.59-.51-5.3-16.57-5.3.2-.88.59-1.94.81-2.82,1.79-5.65,0-10.06-5.08-10.59a22.82,22.82,0,0,0-8.5.53.46.46,0,0,0-.38.7c.15.88.59,3.18-.65,8.12-.22,1.24-.63,2.65-.85,3.88-7.22-.35-15-.88-16.86-2.29-.34-.18-.7-.18-.89.18-1.31,1.94-4.36,8.12,6.4,8.29,2.3,0,5.83-.17,9.72-.35-4.74,18.53-10,37.06-11.58,45.71-.53,2.61-1,5.07-1.29,7.41-10.46,21.1-14.33,19.07-14.33,19.07-3.46-1.94-2.29-14.48,1.12-25.59,3-8.83,6.15-18.18,7-21.18.79-2.12,2.51-10.42-4-11.48a15.59,15.59,0,0,0-8.15.88,2.06,2.06,0,0,0-1,3c1.59,4.58-1.92,18.53-4.76,28.41-5.1,18.54-3.37,29.13,4.67,31.24,0,0,8.37,2.65,15.46-7.59,1.06-1.58,2.16-3.24,3.28-5.09.36,7.05,2.62,11.56,7.38,12.68,0,0,8.93,2,15.28-7.59,1-1.43,2-2.93,3.07-4.57,1.13,10.74,9.57,11.28,9.57,11.28,8.45.53,15.86-13.59,19.71-22.24-1.35,12.53,1,21.36,7.62,23,0,0,8.55,2.64,15.28-7.42,1.42-2.13,2.95-4.39,4.51-7.08,1.13,6.38,4.85,12.47,14.47,14.14,14.59,2.54,23.47-7.55,27.33-13.46.13,7.8,2.37,12.8,7.42,14,0,0,8.93,2,15.28-7.59,1.19-1.69,2.41-3.46,3.63-5.45.3,7.25,2.55,11.9,7.39,13,0,0,8.93,2,15.28-7.59,1.21-1.7,2.43-3.49,3.67-5.52,1.09,5.37,4.78,10.19,14.52,10.11,5.47,0,18.64-3,24.79-25.94C375.19,78.23,385.44,44.43,366.25,43.1ZM272.2,47.16c2.11.18,1.68,2.47.7,4.94a29.39,29.39,0,0,1-1.53,3.36S266.25,65,258.3,69.75C262.44,58.28,269,47,272.2,47.16ZM220.07,58.28l-.6,2.12c-4.29,10.77-17.1,42.19-22.06,37.77-5.8-5.29,16.41-52.07,23.08-51C223.12,47.52,221.26,54.75,220.07,58.28ZM366.92,77.34C362.36,95.88,356,101,351.23,100.82c-7.75-.53-1.92-19.77-1.92-19.77,1.46-6,9.33-35.3,16.11-34.59C365.42,46.46,374.78,46.28,366.92,77.34Z" style="fill:#3c97b4"/></svg>